# Blender 3.3.1
# www.blender.org
mtllib enemy.mtl
o Cube.001
v -0.100785 -0.089121 0.566195
v -0.056448 -0.113243 1.096761
v 0.000373 -0.119706 0.720570
v -0.195245 -0.029128 0.709985
v -0.100937 -0.056345 0.861128
v 0.000000 0.140186 0.300128
v -0.000000 -0.182791 -0.985684
v 0.673815 0.312395 -0.780318
v -0.673815 0.313718 -0.780318
v -0.000000 -0.086098 1.016163
v 0.000000 -0.196226 0.044595
v 0.336807 0.030131 -0.288205
v -0.336807 0.030792 -0.288205
v -0.000000 0.303673 0.378219
v 0.438143 0.042103 0.329880
v -0.438143 0.042765 0.329880
v 0.101988 -0.089121 0.566200
v 0.056361 -0.113243 1.097105
v 0.194617 -0.029279 0.710783
v -0.000325 -0.119901 0.719773
v 0.099752 -0.056345 0.861124
vn -0.5299 -0.8480 0.0057
vn -0.1350 0.9570 0.2566
vn -0.2579 -0.9659 -0.0224
vn 0.6038 0.7934 0.0776
vn 0.4225 0.9007 -0.1015
vn 0.1895 0.9362 0.2959
vn -0.5718 -0.8167 -0.0779
vn -0.1080 0.9642 -0.2422
vn 0.8507 0.1256 -0.5104
vn 0.5710 -0.8173 -0.0778
vn 0.4232 -0.9002 0.1020
vn -0.4244 -0.8997 0.1020
vn 0.4932 0.7423 0.4535
vn 0.1558 0.4257 -0.8913
vn 0.5101 -0.8575 -0.0670
vn -0.5111 -0.8569 -0.0672
vn 0.5503 -0.8349 -0.0109
vn -0.5515 -0.8341 -0.0109
vn -0.4924 0.7427 0.4538
vn 0.2580 -0.9659 -0.0217
vn -0.6105 0.7882 0.0778
vn 0.5343 -0.8452 0.0075
vn 0.1309 0.9580 0.2551
vn -0.4232 0.8999 -0.1050
vn -0.1552 0.4258 -0.8914
vn -0.1914 0.9434 0.2709
vn 0.4225 0.9010 -0.0984
vn 0.1928 0.9432 0.2706
vn 1.0000 -0.0000 -0.0000
vn 0.1881 -0.9365 -0.2960
vn -0.8507 0.1256 -0.5105
vn 0.1099 0.9640 -0.2421
vn -0.4232 0.9003 -0.1015
vt 0.338046 0.875965
vt 0.255085 0.712388
vt 0.301269 0.867956
vt 0.386817 0.717593
vt 0.082519 0.963660
vt 0.326219 0.819154
vt 0.023423 0.863960
vt 0.242173 0.768257
vt 0.386817 0.847882
vt 0.301269 0.738222
vt 0.071362 0.887919
vt 0.290112 0.792216
vt 0.225404 0.840650
vt 0.991477 0.820966
vt 0.409315 0.524686
vt 0.868438 0.907093
vt 0.679541 0.930850
vt 0.297743 0.805411
vt 0.158734 0.383942
vt 0.755004 0.966321
vt 0.380703 0.861672
vt 0.342342 0.967184
vt 0.582244 0.697054
vt 0.286634 0.896569
vt 0.571921 0.804838
vt 0.810534 0.959291
vt 0.960810 0.862382
vt 0.608961 0.933958
vt 0.929563 0.750437
vt 0.806524 0.836564
vt 0.520218 0.189995
vt 0.236535 0.450335
vt 0.385770 0.973704
vt 0.026831 0.161696
vt 0.405195 0.194291
vt 0.797476 0.464295
vt 0.287562 0.789840
vt 0.730300 0.857579
vt 0.675611 0.493108
vt 0.906029 0.952620
vt 0.764439 0.805629
vt 0.813512 0.745402
vt 0.816671 0.640176
vt 0.291605 0.823217
vt 0.441911 0.573980
vt 0.352981 0.524724
vt 0.286989 0.860082
vt 0.197379 0.895497
vt 0.920081 0.817693
vt 0.401360 0.076318
vt 0.440368 0.442303
vt 0.432754 0.388431
vt 0.784990 0.335583
vt 0.798523 0.706364
vt 0.956249 0.838980
vt 0.408273 0.302334
vt 0.968961 0.521799
vt 0.062914 0.482189
vt 0.432754 0.660895
vt 0.987699 0.816034
vt 0.103136 0.405687
vt 0.250424 0.683091
vt 0.240744 0.880685
vt 0.079747 0.871568
vt 0.279864 0.845996
vt 0.273107 0.720201
vt 0.279864 0.721755
vt 0.273107 0.850156
vt 0.236945 0.735854
vt 0.033662 0.975873
vt 0.227021 0.824505
vt 0.067527 0.947178
vt 0.260886 0.795811
s 0
usemtl enemyMt
f 4/9/1 1/1/1 2/4/1
f 4/10/2 2/3/2 5/12/2
f 2/4/3 1/1/3 3/6/3
f 2/5/4 3/7/4 5/11/4
f 3/8/5 4/10/5 5/12/5
f 6/18/6 10/33/6 15/48/6
f 9/28/7 13/41/7 16/55/7
f 6/13/8 12/37/8 7/22/8
f 6/14/9 13/42/9 9/29/9
f 8/25/10 15/49/10 12/38/10
f 15/50/11 10/31/11 11/35/11
f 10/31/12 16/56/12 11/35/12
f 15/51/13 14/45/13 10/32/13
f 6/15/14 14/46/14 15/52/14
f 15/53/15 11/36/15 12/39/15
f 16/57/16 13/43/16 11/36/16
f 12/39/17 11/36/17 7/23/17
f 11/36/18 13/43/18 7/23/18
f 14/45/19 16/58/19 10/32/19
f 20/69/20 17/62/20 18/65/20
f 20/70/21 18/64/21 21/72/21
f 18/65/22 17/62/22 19/67/22
f 18/66/23 19/68/23 21/73/23
f 19/68/24 20/71/24 21/73/24
f 14/46/25 6/15/25 16/59/25
f 16/60/26 6/16/26 9/30/26
f 3/8/27 1/2/27 4/10/27
f 15/54/28 8/26/28 6/17/28
f 6/18/29 14/47/29 10/33/29
f 10/34/30 16/61/30 6/19/30
f 6/20/31 8/27/31 12/40/31
f 6/21/32 7/24/32 13/44/32
f 19/68/33 17/63/33 20/71/33
