# Blender v3.1.2 OBJ File: 'arrow.blend'
# www.blender.org
mtllib arrow.mtl
o Cube
v -0.500000 -0.300000 1.000000
v -0.500000 -0.300000 -1.000000
v -0.500000 0.300000 1.000000
v -0.500000 0.300000 -1.000000
v 0.500000 -0.300000 1.000000
v 0.500000 -0.300000 -1.000000
v 0.500000 0.300000 1.000000
v 0.500000 0.300000 -1.000000
v -0.500000 -0.300000 1.586683
v -0.500000 0.300000 1.586683
v 0.500000 -0.300000 1.586683
v 0.500000 0.300000 1.586683
v -0.997693 -0.300000 0.710135
v -0.997693 0.300000 0.710135
v -0.997693 -0.300000 1.296818
v -0.997693 0.300000 1.296818
v 0.997693 -0.300000 0.715604
v 0.997693 0.300000 0.715604
v 0.997693 -0.300000 1.302287
v 0.997693 0.300000 1.302287
v -0.500000 0.300000 1.586683
v 0.500000 0.300000 1.586683
v -0.500000 -0.300000 1.586683
v 0.500000 -0.300000 1.586683
v -0.500000 0.300000 1.586683
v 0.500000 0.300000 1.586683
v -0.500000 -0.300000 1.586683
v 0.500000 -0.300000 1.586683
v 0.000000 0.300000 1.874067
v 0.000000 -0.300000 1.874067
vt 0.625000 0.250000
vt 0.625000 0.500000
vt 0.625000 0.500000
vt 0.500000 1.000000
vt 0.000000 0.500000
vt 0.500000 0.500000
vt 0.625000 0.000000
vt 0.375000 0.250000
vt 0.375000 0.000000
vt 0.375000 0.500000
vt 0.125000 0.750000
vt 0.125000 0.500000
vt 0.375000 0.750000
vt 0.875000 0.500000
vt 0.625000 0.750000
vt 0.625000 0.500000
vt 0.625000 0.750000
vt 0.625000 1.000000
vt 0.625000 1.000000
vt 0.625000 0.250000
vt 0.625000 0.750000
vt 0.625000 0.500000
vt 0.646671 0.500000
vt 0.500000 0.000000
vt 0.646671 0.000000
vt 0.625000 0.500000
vt 0.625000 0.750000
vt 0.625000 0.750000
vt 0.625000 0.000000
vt 0.625000 0.250000
vt 0.625000 0.250000
vt 0.875000 0.750000
vt 0.875000 0.500000
vt 0.875000 0.750000
vt 0.625000 1.000000
vt 0.625000 1.000000
vt 0.875000 0.750000
vt 0.875000 0.500000
vt 0.625000 0.250000
vt 0.625000 0.500000
vt 0.875000 0.750000
vt 0.625000 0.750000
vt 0.000000 0.000000
vt 0.250000 0.500000
vt 0.000000 0.500000
vt 0.790363 0.000000
vt 0.790363 0.500000
vt 0.718517 0.250000
vt 0.718517 0.000000
vt 0.718517 0.500000
vt 0.646671 0.250000
vt 0.500000 0.500000
vt 0.250000 0.000000
vt 0.500000 0.000000
vt 0.000000 1.000000
vt 0.500000 0.500000
vt 0.625000 0.000000
vt 0.875000 0.500000
vt 0.625000 1.000000
vn 0.0000 -1.0000 0.0000
vn 0.0000 1.0000 0.0000
vn 1.0000 0.0000 0.0000
vn 0.0000 0.0000 -1.0000
vn -1.0000 0.0000 0.0000
vn 0.0000 0.0000 1.0000
vn -0.4961 0.0000 -0.8682
vn -0.5033 0.0000 0.8641
vn 0.5033 0.0000 -0.8641
vn 0.4961 0.0000 0.8682
vn -0.4983 0.0000 -0.8670
vn 0.4983 0.0000 -0.8670
g Cube_Cube_Material
usemtl Material
s off
f 5/1/1 23/2/1 1/3/1
f 3/4/2 8/5/2 4/6/2
f 7/7/3 6/8/3 8/9/3
f 2/10/4 8/11/4 6/12/4
f 1/3/5 4/13/5 2/10/5
f 5/1/1 2/10/1 6/8/1
f 11/14/6 10/15/6 9/16/6
f 3/17/2 22/18/2 7/19/2
f 7/7/7 17/20/7 5/1/7
f 21/21/8 15/22/8 23/2/8
f 13/23/5 16/24/5 14/25/5
f 3/17/9 13/26/9 14/27/9
f 3/17/2 16/28/2 21/21/2
f 1/3/1 15/22/1 13/26/1
f 18/29/3 19/30/3 17/20/3
f 5/1/1 19/30/1 24/31/1
f 22/32/10 19/33/10 20/34/10
f 7/19/2 20/35/2 18/36/2
f 12/37/6 21/21/6 10/15/6
f 10/15/6 23/2/6 9/16/6
f 11/14/6 22/32/6 12/37/6
f 9/16/6 24/38/6 11/14/6
f 23/2/6 28/39/6 24/31/6
f 21/21/6 27/40/6 23/2/6
f 24/38/6 26/41/6 22/32/6
f 22/18/6 25/42/6 21/21/6
f 28/43/11 29/44/11 26/45/11
f 25/46/1 26/47/1 29/48/1
f 28/49/2 27/50/2 30/51/2
f 25/52/12 30/53/12 27/54/12
f 5/1/1 24/31/1 23/2/1
f 3/4/2 7/55/2 8/5/2
f 7/7/3 5/1/3 6/8/3
f 2/10/4 4/13/4 8/11/4
f 1/3/5 3/17/5 4/13/5
f 5/1/1 1/3/1 2/10/1
f 11/14/6 12/37/6 10/15/6
f 3/17/2 21/21/2 22/18/2
f 7/7/7 18/29/7 17/20/7
f 21/21/8 16/28/8 15/22/8
f 13/23/5 15/56/5 16/24/5
f 3/17/9 1/3/9 13/26/9
f 3/17/2 14/27/2 16/28/2
f 1/3/1 23/2/1 15/22/1
f 18/29/3 20/57/3 19/30/3
f 5/1/1 17/20/1 19/30/1
f 22/32/10 24/38/10 19/33/10
f 7/19/2 22/18/2 20/35/2
f 12/37/6 22/32/6 21/21/6
f 10/15/6 21/21/6 23/2/6
f 11/14/6 24/38/6 22/32/6
f 9/16/6 23/2/6 24/38/6
f 23/2/6 27/40/6 28/39/6
f 21/21/6 25/42/6 27/40/6
f 24/38/6 28/58/6 26/41/6
f 22/18/6 26/59/6 25/42/6
f 28/43/11 30/53/11 29/44/11
f 25/52/12 29/44/12 30/53/12
