# Blender 3.1.2
# www.blender.org
mtllib Player.mtl
o 円柱
v 0.000000 0.250000 -0.950000
v 0.000000 0.250000 -0.019987
v 0.048773 0.245196 -0.950000
v 0.048773 0.245196 -0.019987
v 0.095671 0.230970 -0.950000
v 0.095671 0.230970 -0.019987
v 0.138893 0.207867 -0.950000
v 0.138893 0.207867 -0.019987
v 0.176777 0.176777 -0.950000
v 0.176777 0.176777 -0.019987
v 0.207867 0.138893 -0.950000
v 0.207867 0.138893 -0.019987
v 0.230970 0.095671 -0.950000
v 0.230970 0.095671 -0.019987
v 0.245196 0.048773 -0.950000
v 0.245196 0.048773 -0.019987
v 0.250000 0.000000 -0.950000
v 0.250000 -0.000000 -0.019987
v 0.245196 -0.048773 -0.950000
v 0.245196 -0.048773 -0.019987
v 0.230970 -0.095671 -0.950000
v 0.230970 -0.095671 -0.019987
v 0.207867 -0.138893 -0.950000
v 0.207867 -0.138893 -0.019987
v 0.176777 -0.176777 -0.950000
v 0.176777 -0.176777 -0.019987
v 0.138893 -0.207867 -0.950000
v 0.138893 -0.207867 -0.019987
v 0.095671 -0.230970 -0.950000
v 0.095671 -0.230970 -0.019987
v 0.048773 -0.245196 -0.950000
v 0.048773 -0.245196 -0.019987
v -0.000000 -0.250000 -0.950000
v -0.000000 -0.250000 -0.019987
v -0.048773 -0.245196 -0.950000
v -0.048773 -0.245196 -0.019987
v -0.095671 -0.230970 -0.950000
v -0.095671 -0.230970 -0.019987
v -0.138893 -0.207867 -0.950000
v -0.138893 -0.207867 -0.019987
v -0.176777 -0.176777 -0.950000
v -0.176777 -0.176777 -0.019987
v -0.207867 -0.138893 -0.950000
v -0.207867 -0.138893 -0.019987
v -0.230970 -0.095671 -0.950000
v -0.230970 -0.095671 -0.019987
v -0.245196 -0.048773 -0.950000
v -0.245196 -0.048773 -0.019987
v -0.250000 0.000000 -0.950000
v -0.250000 -0.000000 -0.019987
v -0.245196 0.048773 -0.950000
v -0.245196 0.048773 -0.019987
v -0.230970 0.095671 -0.950000
v -0.230970 0.095671 -0.019987
v -0.207867 0.138893 -0.950000
v -0.207867 0.138893 -0.019987
v -0.176777 0.176777 -0.950000
v -0.176777 0.176777 -0.019987
v -0.138893 0.207867 -0.950000
v -0.138893 0.207867 -0.019987
v -0.095671 0.230970 -0.950000
v -0.095671 0.230970 -0.019987
v -0.048773 0.245196 -0.950000
v -0.048773 0.245196 -0.019987
v 0.000000 -1.000000 -0.000000
v 0.000000 1.000000 0.000000
v 0.663066 -0.340528 0.000719
v 0.666593 0.329794 0.000723
v -0.000719 -0.347106 0.663044
v -0.000723 0.323181 0.666614
v -0.666593 0.329794 -0.000723
v -0.663066 -0.340528 -0.000719
v 0.000723 0.329816 -0.666572
v 0.000719 -0.340506 -0.663087
vn 0.0980 0.9952 -0.0000
vn 0.2903 0.9569 -0.0000
vn 0.4714 0.8819 -0.0000
vn 0.6344 0.7730 -0.0000
vn 0.7730 0.6344 -0.0000
vn 0.8819 0.4714 -0.0000
vn 0.9569 0.2903 -0.0000
vn 0.9952 0.0980 -0.0000
vn 0.9952 -0.0980 -0.0000
vn 0.9569 -0.2903 -0.0000
vn 0.8819 -0.4714 -0.0000
vn 0.7730 -0.6344 -0.0000
vn 0.6344 -0.7730 -0.0000
vn 0.4714 -0.8819 -0.0000
vn 0.2903 -0.9569 -0.0000
vn 0.0980 -0.9952 -0.0000
vn -0.0980 -0.9952 -0.0000
vn -0.2903 -0.9569 -0.0000
vn -0.4714 -0.8819 -0.0000
vn -0.6344 -0.7730 -0.0000
vn -0.7730 -0.6344 -0.0000
vn -0.8819 -0.4714 -0.0000
vn -0.9569 -0.2903 -0.0000
vn -0.9952 -0.0980 -0.0000
vn -0.9952 0.0980 -0.0000
vn -0.9569 0.2903 -0.0000
vn -0.8819 0.4714 -0.0000
vn -0.7730 0.6344 -0.0000
vn -0.6344 0.7730 -0.0000
vn -0.4714 0.8819 -0.0000
vn -0.0000 -0.0000 1.0000
vn -0.2903 0.9569 -0.0000
vn -0.0980 0.9952 -0.0000
vn -0.0000 -0.0000 -1.0000
vn 0.9441 0.3297 0.0017
vn -0.0000 1.0000 0.0019
vn -0.0010 0.3260 0.9454
vn -0.9441 0.3297 -0.0004
vn 0.0010 0.3291 -0.9443
vn -0.0000 -1.0000 -0.0020
vn 0.9422 -0.3352 0.0004
vn -0.0010 -0.3389 0.9408
vn -0.9422 -0.3352 -0.0017
vn 0.0010 -0.3358 -0.9419
vt 0.339520 0.745969
vt 0.514568 0.766151
vt 0.713555 0.698388
vt 0.339520 0.816702
vt 0.396044 0.811693
vt 0.333755 0.745969
vt 0.524896 0.768080
vt 0.333755 0.816702
vt 0.396044 0.934483
vt 0.703083 0.699359
vt 0.382997 0.807608
vt 0.534683 0.772835
vt 0.382997 0.930398
vt 0.692869 0.703193
vt 0.368833 0.805084
vt 0.543552 0.780233
vt 0.368833 0.927874
vt 0.683306 0.709741
vt 0.354097 0.804220
vt 0.551162 0.789989
vt 0.354097 0.927010
vt 0.674761 0.718754
vt 0.339355 0.805047
vt 0.557223 0.801729
vt 0.339355 0.927837
vt 0.667562 0.729883
vt 0.325173 0.807535
vt 0.561499 0.815002
vt 0.325173 0.930325
vt 0.661987 0.742702
vt 0.312096 0.811588
vt 0.563828 0.829297
vt 0.312096 0.934377
vt 0.670637 0.835011
vt 0.658248 0.756718
vt 0.564119 0.844065
vt 0.670928 0.849779
vt 0.656491 0.771391
vt 0.333755 0.877105
vt 0.562361 0.858739
vt 0.669170 0.864453
vt 0.333755 0.819139
vt 0.656783 0.786159
vt 0.339859 0.878989
vt 0.558623 0.872754
vt 0.339859 0.821023
vt 0.659112 0.800454
vt 0.346487 0.880155
vt 0.553047 0.885572
vt 0.346487 0.822189
vt 0.663388 0.813726
vt 0.353384 0.880557
vt 0.545848 0.896701
vt 0.353384 0.822591
vt 0.669449 0.825466
vt 0.360286 0.880181
vt 0.537303 0.905713
vt 0.360286 0.822215
vt 0.677059 0.835222
vt 0.366927 0.879040
vt 0.527739 0.912261
vt 0.366927 0.821074
vt 0.685928 0.842619
vt 0.373052 0.877178
vt 0.517525 0.916094
vt 0.373052 0.819212
vt 0.695715 0.847373
vt 0.312096 0.804220
vt 0.378426 0.874668
vt 0.507053 0.917065
vt 0.378426 0.816702
vt 0.312096 0.680800
vt 0.706042 0.849301
vt 0.323575 0.798821
vt 0.496725 0.915136
vt 0.323575 0.675401
vt 0.716514 0.848330
vt 0.336660 0.794818
vt 0.486938 0.910381
vt 0.336660 0.671398
vt 0.726728 0.844496
vt 0.350847 0.792364
vt 0.478069 0.902983
vt 0.350847 0.668944
vt 0.736291 0.837948
vt 0.365591 0.791554
vt 0.470459 0.893227
vt 0.365591 0.668135
vt 0.744836 0.828935
vt 0.380325 0.792419
vt 0.464398 0.881487
vt 0.380325 0.669000
vt 0.752035 0.817806
vt 0.394484 0.794926
vt 0.460122 0.868214
vt 0.394484 0.671507
vt 0.757610 0.804987
vt 0.868160 0.796689
vt 0.407523 0.798979
vt 0.457793 0.853920
vt 0.407523 0.675559
vt 0.761349 0.790972
vt 0.869917 0.782015
vt 0.457502 0.839151
vt 0.763106 0.776298
vt 0.383530 0.745969
vt 0.869626 0.767247
vt 0.459260 0.824478
vt 0.383530 0.816702
vt 0.762814 0.761530
vt 0.378628 0.745969
vt 0.462998 0.810462
vt 0.378628 0.816702
vt 0.760485 0.747235
vt 0.372863 0.745969
vt 0.468574 0.797644
vt 0.372863 0.816702
vt 0.756209 0.733963
vt 0.366458 0.745969
vt 0.475773 0.786515
vt 0.366458 0.816702
vt 0.750148 0.722223
vt 0.359658 0.745969
vt 0.484318 0.777503
vt 0.359658 0.816702
vt 0.742538 0.712467
vt 0.352725 0.745969
vt 0.493882 0.770955
vt 0.733669 0.705070
vt 0.352725 0.816702
vt 0.345925 0.745969
vt 0.504096 0.767122
vt 0.723882 0.700316
vt 0.345925 0.816702
vt 0.928015 0.035477
vt 0.712210 0.017669
vt 0.143941 0.604399
vt 0.428820 0.604399
vt 0.711771 0.000000
vt 0.141693 0.000000
vt 0.426572 0.000000
vt 0.808497 0.556645
vt 0.928015 0.318092
vt 0.569767 0.404056
vt 0.571283 0.413398
vt 0.569767 0.247866
vt 0.569767 0.201479
vt 0.683636 0.174614
vt 0.001516 0.407092
vt 0.854665 0.414519
vt 0.000000 0.204531
vt 0.854665 0.248999
vt 0.808497 0.283509
vt 0.284884 0.201473
vt 0.854651 0.427737
vt 0.853899 0.262200
vt 0.284884 0.404049
vt 0.650538 0.461203
vt 0.569767 0.427737
vt 0.284884 0.202533
vt 0.570513 0.262206
vt 0.286382 0.405104
s 0
usemtl Material.001
f 2/4/1 3/6/1 1/1/1
f 4/9/2 5/11/2 3/5/2
f 6/13/3 7/15/3 5/11/3
f 8/17/4 9/19/4 7/15/4
f 10/21/5 11/23/5 9/19/5
f 12/25/6 13/27/6 11/23/6
f 14/29/7 15/31/7 13/27/7
f 16/34/8 17/36/8 15/32/8
f 18/37/9 19/40/9 17/36/9
f 20/42/10 21/44/10 19/39/10
f 22/46/11 23/48/11 21/44/11
f 24/50/12 25/52/12 23/48/12
f 26/54/13 27/56/13 25/52/13
f 28/58/14 29/60/14 27/56/14
f 30/62/15 31/64/15 29/60/15
f 32/66/16 33/69/16 31/64/16
f 34/72/17 35/74/17 33/68/17
f 36/76/18 37/78/18 35/74/18
f 38/80/19 39/82/19 37/78/19
f 40/84/20 41/86/20 39/82/20
f 42/88/21 43/90/21 41/86/21
f 44/92/22 45/94/22 43/90/22
f 46/96/23 47/99/23 45/94/23
f 48/102/24 49/103/24 47/98/24
f 50/105/25 51/107/25 49/103/25
f 52/109/26 53/111/26 51/106/26
f 54/113/27 55/115/27 53/111/27
f 56/117/28 57/119/28 55/115/28
f 58/121/29 59/123/29 57/119/29
f 60/125/30 61/127/30 59/123/30
f 54/114/31 38/81/31 22/47/31
f 62/130/32 63/131/32 61/127/32
f 64/134/33 1/1/33 63/131/33
f 15/32/34 31/65/34 47/100/34
s 1
f 68/146/35 66/139/36 70/152/37
f 70/151/37 66/140/36 71/154/38
f 66/141/36 68/147/35 73/160/39
f 65/135/40 67/143/41 69/148/42
f 66/142/36 73/158/39 71/153/38
f 72/156/43 74/161/44 65/136/40
f 72/157/43 65/137/40 69/149/42
f 70/151/37 72/157/43 69/149/42
f 70/152/37 67/145/41 68/146/35
f 71/155/38 74/161/44 72/156/43
f 74/162/44 68/147/35 67/144/41
f 67/144/41 65/138/40 74/162/44
s 0
f 2/4/1 4/8/1 3/6/1
f 4/9/2 6/13/2 5/11/2
f 6/13/3 8/17/3 7/15/3
f 8/17/4 10/21/4 9/19/4
f 10/21/5 12/25/5 11/23/5
f 12/25/6 14/29/6 13/27/6
f 14/29/7 16/33/7 15/31/7
f 16/34/8 18/37/8 17/36/8
f 18/37/9 20/41/9 19/40/9
f 20/42/10 22/46/10 21/44/10
f 22/46/11 24/50/11 23/48/11
f 24/50/12 26/54/12 25/52/12
f 26/54/13 28/58/13 27/56/13
f 28/58/14 30/62/14 29/60/14
f 30/62/15 32/66/15 31/64/15
f 32/66/16 34/71/16 33/69/16
f 34/72/17 36/76/17 35/74/17
f 36/76/18 38/80/18 37/78/18
f 38/80/19 40/84/19 39/82/19
f 40/84/20 42/88/20 41/86/20
f 42/88/21 44/92/21 43/90/21
f 44/92/22 46/96/22 45/94/22
f 46/96/23 48/101/23 47/99/23
f 48/102/24 50/105/24 49/103/24
f 50/105/25 52/110/25 51/107/25
f 52/109/26 54/113/26 53/111/26
f 54/113/27 56/117/27 55/115/27
f 56/117/28 58/121/28 57/119/28
f 58/121/29 60/125/29 59/123/29
f 60/125/30 62/130/30 61/127/30
f 6/14/31 4/10/31 62/129/31
f 4/10/31 2/3/31 62/129/31
f 2/3/31 64/133/31 62/129/31
f 62/129/31 60/126/31 58/122/31
f 58/122/31 56/118/31 62/129/31
f 56/118/31 54/114/31 62/129/31
f 54/114/31 52/110/31 50/105/31
f 50/105/31 48/102/31 46/97/31
f 46/97/31 44/93/31 42/89/31
f 42/89/31 40/85/31 38/81/31
f 38/81/31 36/77/31 34/73/31
f 34/73/31 32/67/31 30/63/31
f 30/63/31 28/59/31 26/55/31
f 26/55/31 24/51/31 22/47/31
f 22/47/31 20/43/31 18/38/31
f 18/38/31 16/35/31 14/30/31
f 14/30/31 12/26/31 10/22/31
f 10/22/31 8/18/31 6/14/31
f 54/114/31 50/105/31 38/81/31
f 50/105/31 46/97/31 38/81/31
f 46/97/31 42/89/31 38/81/31
f 38/81/31 34/73/31 30/63/31
f 30/63/31 26/55/31 38/81/31
f 26/55/31 22/47/31 38/81/31
f 22/47/31 18/38/31 6/14/31
f 18/38/31 14/30/31 6/14/31
f 14/30/31 10/22/31 6/14/31
f 6/14/31 62/129/31 54/114/31
f 6/14/31 54/114/31 22/47/31
f 62/130/32 64/134/32 63/131/32
f 64/134/33 2/4/33 1/1/33
f 63/132/34 1/2/34 3/7/34
f 3/7/34 5/12/34 7/16/34
f 7/16/34 9/20/34 11/24/34
f 11/24/34 13/28/34 15/32/34
f 15/32/34 17/36/34 19/40/34
f 19/40/34 21/45/34 23/49/34
f 23/49/34 25/53/34 27/57/34
f 27/57/34 29/61/34 31/65/34
f 31/65/34 33/70/34 35/75/34
f 35/75/34 37/79/34 39/83/34
f 39/83/34 41/87/34 43/91/34
f 43/91/34 45/95/34 47/100/34
f 47/100/34 49/104/34 51/108/34
f 51/108/34 53/112/34 47/100/34
f 53/112/34 55/116/34 47/100/34
f 55/116/34 57/120/34 59/124/34
f 59/124/34 61/128/34 55/116/34
f 61/128/34 63/132/34 55/116/34
f 63/132/34 3/7/34 15/32/34
f 3/7/34 7/16/34 15/32/34
f 7/16/34 11/24/34 15/32/34
f 15/32/34 19/40/34 23/49/34
f 23/49/34 27/57/34 15/32/34
f 27/57/34 31/65/34 15/32/34
f 31/65/34 35/75/34 47/100/34
f 35/75/34 39/83/34 47/100/34
f 39/83/34 43/91/34 47/100/34
f 47/100/34 55/116/34 63/132/34
f 63/132/34 15/32/34 47/100/34
s 1
f 70/151/37 71/154/38 72/157/43
f 70/152/37 69/150/42 67/145/41
f 71/155/38 73/159/39 74/161/44
f 74/162/44 73/160/39 68/147/35
