# Blender v3.1.2 OBJ File: ''
# www.blender.org
mtllib muso.mtl
o muso_Cube.001
v 1.000000 1.000000 -1.000000
v 1.000000 -1.000000 -1.000000
v 1.000000 1.000000 1.000000
v 1.000000 -1.000000 1.000000
v -1.000000 1.000000 -1.000000
v -1.000000 -1.000000 -1.000000
v -1.000000 1.000000 1.000000
v -1.000000 -1.000000 1.000000
vt 0.999401 0.999401
vt 0.000600 0.000599
vt 0.999401 0.000599
vt 0.999401 0.000599
vt 0.000599 0.999401
vt 0.000599 0.000599
vt 0.999401 0.999401
vt 0.000600 0.000599
vt 0.999401 0.000600
vt 0.000599 0.999401
vt 0.999401 0.999401
vt 0.000599 0.999400
vt 0.000599 0.000599
vt 0.999401 0.000599
vt 0.000599 0.999401
vt 0.000599 0.999401
vt 0.999401 0.999401
vt 0.999401 0.999401
vn 0.0000 1.0000 0.0000
vn 0.0000 0.0000 1.0000
vn -1.0000 0.0000 0.0000
vn 0.0000 -1.0000 0.0000
vn 1.0000 0.0000 0.0000
vn 0.0000 0.0000 -1.0000
usemtl Material.001
s off
f 5/1/1 3/2/1 1/3/1
f 3/4/2 8/5/2 4/6/2
f 7/7/3 6/8/3 8/9/3
f 2/10/4 8/9/4 6/11/4
f 1/3/5 4/12/5 2/13/5
f 5/14/6 2/10/6 6/8/6
f 5/1/1 7/15/1 3/2/1
f 3/4/2 7/7/2 8/5/2
f 7/7/3 5/16/3 6/8/3
f 2/10/4 4/6/4 8/9/4
f 1/3/5 3/17/5 4/12/5
f 5/14/6 1/18/6 2/10/6
