# Blender v3.1.2 OBJ File: ''
# www.blender.org
mtllib muso.mtl
o Cube.002
v 0.000000 0.417264 0.803791
v 0.335410 0.751884 0.215734
v -0.000325 1.002207 0.481884
v -0.335410 0.751501 0.210790
v 0.000000 1.115238 0.279124
v 0.000325 0.554018 0.273362
v 0.375656 0.000000 0.736451
v 1.106249 0.000542 0.002710
v 0.546690 0.559017 0.002710
v -0.011785 -0.000542 0.002710
v 0.995676 0.000000 -0.747290
v 0.547774 -0.559017 0.002710
v -0.376822 0.000000 0.736451
v -1.107415 -0.000542 0.002710
v -0.547856 -0.559017 0.002710
v 0.010619 0.000542 0.002710
v -0.996842 0.000000 -0.747290
v -0.548940 0.559017 0.002710
v 0.000000 -1.472902 -0.000000
v 1.118034 -0.005420 0.001084
v -0.001084 -0.005420 1.118034
v -1.118034 -0.005420 -0.001084
v 0.000000 1.494581 0.000000
v 0.001084 -0.005420 -1.118034
vt 0.959858 0.632542
vt 0.972457 0.753367
vt 0.892219 0.713053
vt 0.312326 0.941803
vt 0.343816 0.857239
vt 0.367928 0.941803
vt 0.492282 0.811106
vt 0.492282 0.947162
vt 0.415497 0.857897
vt 0.882246 0.753367
vt 0.931230 0.890660
vt 0.882246 0.839534
vt 0.931230 0.753367
vt 0.312326 0.857239
vt 0.312326 0.946180
vt 0.259235 0.903632
vt 0.894678 0.045372
vt 0.944219 0.000000
vt 0.944219 0.114618
vt 0.402166 0.818765
vt 0.894678 0.000000
vt 0.894678 0.174845
vt 0.772845 0.099787
vt 0.784880 0.544435
vt 0.816306 0.335980
vt 0.902450 0.465287
vt 0.134476 0.922412
vt 0.253970 0.833507
vt 0.253970 1.000000
vt 0.815341 0.278934
vt 0.902450 0.613262
vt 0.425324 0.670037
vt 0.515229 0.811106
vt 0.402166 0.811106
vt 0.143066 0.833507
vt 0.000000 0.833507
vt 0.093103 0.671339
vt 0.259236 0.857239
vt 0.273835 0.670037
vt 0.402166 0.857239
vt 0.882246 0.632542
vt 0.882246 0.791128
vt 0.779071 0.693958
vt 0.517343 0.791183
vt 0.560990 0.632542
vt 0.636113 0.711367
vt 0.134476 0.833507
vt 0.134476 0.981606
vt 0.000000 0.882335
vt 0.779529 0.881592
vt 0.636113 0.880160
vt 0.254395 0.814269
vt 0.143066 0.689946
vt 0.254395 0.671339
vt 0.772088 0.989434
vt 0.636114 0.946894
vt 0.772088 0.819721
vt 0.636113 0.819721
vt 0.650720 0.632542
vt 0.779070 0.819721
vt 0.256769 0.338307
vt 0.256769 0.671339
vt 0.000000 0.546561
vt 0.259235 0.000000
vt 0.259235 0.338307
vt 0.000000 0.120230
vt 0.784880 0.578154
vt 0.556480 0.351810
vt 0.784880 0.335980
vt 0.519997 0.222085
vt 0.772845 0.000000
vt 0.772845 0.307256
vt 0.517343 0.632542
vt 0.518033 0.003071
vt 0.517343 0.670037
vt 0.259236 0.547439
vt 0.517343 0.335980
vt 0.518033 0.000000
vt 0.518033 0.335980
vt 0.259235 0.117573
vn 0.7255 0.3321 0.6028
vn 0.1890 0.0102 -0.9819
vn -0.7304 0.3290 0.5986
vn 0.7201 0.6056 0.3388
vn -0.4634 -0.8580 -0.2215
vn -0.1752 0.0100 -0.9845
vn 0.4676 -0.8560 -0.2204
vn -0.7231 0.6038 0.3354
vn 0.5777 0.5788 0.5756
vn -0.5123 -0.5133 -0.6885
vn -0.6631 0.6618 0.3497
vn 0.7026 0.7039 -0.1041
vn -0.6618 -0.6630 0.3499
vn 0.7040 -0.7026 -0.1033
vn 0.5787 -0.5776 0.5758
vn -0.5131 0.5121 -0.6888
vn -0.5777 -0.5788 0.5756
vn 0.5123 0.5133 -0.6885
vn 0.6631 -0.6618 0.3497
vn -0.7026 -0.7039 -0.1041
vn 0.6618 0.6630 0.3499
vn -0.7040 0.7026 -0.1033
vn -0.5787 0.5776 0.5758
vn 0.5131 -0.5121 -0.6888
vn 0.6219 -0.4743 0.6231
vn -0.6249 0.4663 -0.6261
vn -0.6231 -0.4743 0.6219
vn 0.6249 0.4663 0.6261
vn -0.6219 -0.4743 -0.6231
vn 0.6261 0.4663 -0.6249
vn 0.6231 -0.4743 -0.6219
vn -0.6261 0.4663 0.6249
usemtl Material.002
s 1
f 1/1/1 2/2/1 3/3/1
f 4/4/2 5/5/2 6/6/2
f 4/7/3 1/8/3 3/9/3
f 2/2/4 5/10/4 3/3/4
f 4/11/5 6/12/5 1/13/5
f 6/14/6 5/15/6 2/16/6
f 6/17/7 2/18/7 1/19/7
f 3/9/8 5/20/8 4/7/8
usemtl Material.001
f 7/21/9 8/22/9 9/23/9
f 10/24/10 11/25/10 12/26/10
f 10/27/11 7/28/11 9/29/11
f 8/22/12 11/30/12 9/23/12
f 10/24/13 12/26/13 7/31/13
f 12/32/14 11/33/14 8/34/14
f 12/35/15 8/36/15 7/37/15
f 9/38/16 11/39/16 10/40/16
usemtl Material.003
f 13/41/17 14/42/17 15/43/17
f 16/44/18 17/45/18 18/46/18
f 16/47/19 13/48/19 15/49/19
f 14/42/20 17/50/20 15/43/20
f 16/44/21 18/46/21 13/51/21
f 18/52/22 17/53/22 14/54/22
f 18/55/23 14/56/23 13/57/23
f 15/58/24 17/59/24 16/60/24
usemtl Material.004
f 19/61/25 20/62/25 21/63/25
f 22/64/26 23/65/26 24/66/26
f 22/67/27 19/68/27 21/69/27
f 20/70/28 23/71/28 21/72/28
f 22/67/29 24/73/29 19/68/29
f 24/74/30 23/71/30 20/70/30
f 24/75/31 20/76/31 19/77/31
f 21/78/32 23/79/32 22/80/32
