# Blender v3.1.2 OBJ File: ''
# www.blender.org
mtllib Ship.mtl
o Cube
v 3.248751 0.396611 -8.218843
v 3.248751 -0.396611 -8.218843
v 1.826584 0.396611 8.218843
v 1.826584 -0.396611 8.218843
v -3.248751 0.396611 -8.218843
v -3.248751 -0.396611 -8.218843
v -1.826584 0.396611 8.218843
v -1.826584 -0.396611 8.218843
v -3.248751 -0.396611 0.820020
v 3.248751 0.396611 0.820020
v -3.248751 0.396611 0.820020
v 3.248751 -0.396611 0.820020
v -1.826584 -0.396611 3.425467
v 1.826584 0.396611 3.425467
v -1.826584 0.396611 3.425467
v 1.826584 -0.396611 3.425467
v 0.942165 -1.170755 -8.218843
v 0.529725 -1.170755 8.218843
v -0.942165 -1.170755 -8.218843
v -0.529725 -1.170755 8.218843
v -0.942165 -1.170755 0.820020
v 0.942165 -1.170755 0.820020
v -0.529725 -1.170755 3.425467
v 0.529725 -1.170755 3.425467
v -3.248751 0.396611 -3.449882
v -3.248751 0.396611 -4.633865
v -1.701125 0.396611 -4.633865
v -1.701125 0.396611 -3.449882
v -2.861713 2.092248 -3.745979
v -2.861713 2.092248 -4.337768
v -2.088164 2.092248 -4.337768
v -2.088164 2.092248 -3.745979
v -2.861713 2.395354 -3.745979
v -2.861713 2.395354 -4.337768
v -2.088164 2.395354 -4.337768
v -2.088164 2.395354 -3.745979
v -3.248751 2.788406 -3.739992
v -3.248751 2.788406 -4.343754
v -1.701125 2.788406 -4.343754
v -1.701125 2.788406 -3.739992
v -0.964172 0.396611 3.425467
v -0.399778 0.396611 3.425467
v -0.399778 0.396611 8.218843
v -0.964173 0.396611 8.218843
v -0.681975 0.396611 5.822155
v 0.493844 0.396611 3.425467
v 1.175818 0.396611 3.425467
v 1.175818 0.396611 8.218843
v 0.493844 0.396611 8.218843
v 0.834831 0.396611 5.822155
v 3.248751 0.396611 -0.286839
v 3.248751 -0.396611 -0.278652
vt 0.160385 0.584917
vt 0.188298 0.601969
vt 0.160385 0.601969
vt 0.540662 0.392902
vt 0.509942 0.392902
vt 0.463001 0.194060
vt 0.397027 0.407473
vt 0.353660 0.407473
vt 0.353660 0.210965
vt 0.000000 0.194060
vt 0.228112 0.000000
vt 0.353660 0.194060
vt 0.888303 0.804954
vt 0.830319 0.607890
vt 0.888303 0.607890
vt 0.353660 0.392902
vt 0.463001 0.000000
vt 0.463001 0.210965
vt 0.310186 0.792095
vt 0.198843 0.610109
vt 0.275025 0.596386
vt 0.145212 0.468981
vt 0.120347 0.509533
vt 0.120347 0.468981
vt 0.632329 0.791977
vt 0.574345 0.595469
vt 0.632329 0.595469
vt 0.498162 0.392902
vt 0.539184 0.602334
vt 0.463001 0.588611
vt 0.888303 0.406145
vt 0.160385 0.528843
vt 0.160385 0.543632
vt 0.741959 0.740431
vt 0.684293 0.798415
vt 0.684293 0.740431
vt 0.764408 0.620489
vt 0.661844 0.708914
vt 0.683025 0.628777
vt 0.764408 0.708914
vt 0.661844 0.194060
vt 0.533589 0.000000
vt 0.591255 0.000000
vt 0.552256 0.801814
vt 0.632329 0.392902
vt 0.843609 0.209081
vt 0.834976 0.029859
vt 0.939660 0.000000
vt 0.288097 0.396907
vt 0.310186 0.392902
vt 0.661028 0.899082
vt 0.770309 0.912978
vt 0.660648 0.902846
vt 0.770905 0.884397
vt 0.789758 0.897483
vt 0.769786 0.895464
vt 0.659739 0.867569
vt 0.657502 0.889710
vt 0.630600 0.886991
vt 0.767549 0.917606
vt 0.655264 0.911852
vt 0.814677 0.895683
vt 0.704977 0.881744
vt 0.815057 0.891918
vt 0.787521 0.919624
vt 0.841133 0.908269
vt 0.838144 0.937848
vt 0.768668 0.906539
vt 0.704786 0.883626
vt 0.685184 0.879744
vt 0.770499 0.911096
vt 0.790046 0.914972
vt 0.783152 0.900043
vt 0.760817 0.899725
vt 0.761011 0.897806
vt 0.684994 0.881626
vt 0.658781 0.877056
vt 0.790236 0.913091
vt 0.816484 0.917664
vt 0.790876 0.886416
vt 0.815096 0.905637
vt 0.122558 0.835884
vt 0.064574 0.835884
vt 0.093566 0.820524
vt 0.064574 0.805164
vt 0.160385 0.506246
vt 0.188298 0.528843
vt 0.122558 0.805164
vt 0.198843 0.840438
vt 0.140858 0.840438
vt 0.169850 0.821878
vt 0.140858 0.803318
vt 0.188298 0.567047
vt 0.160385 0.567047
vt 0.198843 0.803318
vt 0.092576 0.639233
vt 0.113452 0.509533
vt 0.138767 0.639233
vt 0.092576 0.468981
vt 0.113452 0.468981
vt 0.068027 0.866945
vt 0.335971 0.914468
vt 0.063568 0.880555
vt 0.830319 0.406145
vt 0.830319 0.209081
vt 0.939660 0.209081
vt 0.843708 0.406145
vt 0.188298 0.584917
vt 0.661844 0.392902
vt 0.626422 0.392902
vt 0.589302 0.392902
vt 0.463001 0.392902
vt 0.411349 0.407473
vt 0.463001 0.407473
vt 0.125548 0.000000
vt 0.830319 0.804954
vt 0.000000 0.392902
vt 0.353660 0.000000
vt 0.234003 0.805818
vt 0.145212 0.639233
vt 0.574345 0.791977
vt 0.574345 0.406625
vt 0.830319 0.406145
vt 0.741959 0.798415
vt 0.574345 0.805818
vt 0.574345 0.392902
vt 0.788639 0.908557
vt 0.782958 0.901963
vt 0.658587 0.878976
vt 0.816678 0.915744
vt 0.817334 0.883496
vt 0.188298 0.506246
vt 0.188298 0.543632
vt 0.340140 0.901744
vt 0.939660 0.406145
vn 0.0000 1.0000 0.0000
vn 0.0000 0.0000 1.0000
vn -1.0000 0.0000 0.0000
vn 0.0000 0.0000 -1.0000
vn 1.0000 0.0000 0.0000
vn -0.3182 -0.9480 0.0000
vn -0.8778 0.0000 0.4791
vn 0.8778 0.0000 0.4791
vn 0.5126 -0.8587 0.0000
vn 0.0000 -1.0000 0.0000
vn 0.3135 -0.9340 0.1711
vn -0.5126 -0.8587 0.0000
vn 0.3182 -0.9480 0.0000
vn -0.5109 -0.8558 0.0809
vn -0.9749 0.2225 0.0000
vn 0.0000 0.1720 0.9851
vn 0.0000 0.1720 -0.9851
vn 0.9749 0.2225 0.0000
vn 0.0000 -0.0152 -0.9999
vn 0.7125 -0.7016 0.0000
vn -0.7125 -0.7016 0.0000
vn 0.0000 -0.0152 0.9999
vn 0.5109 -0.8558 0.0809
vn -0.3135 -0.9340 0.1711
g Cube_Cube_Material
usemtl Material
s off
f 47/1/1 3/2/1 14/3/1
f 43/4/2 44/5/2 8/6/2
f 26/7/3 5/8/3 6/9/3
f 2/10/4 19/11/4 6/12/4
f 14/13/5 4/14/5 16/15/5
f 5/16/4 2/10/4 6/12/4
f 6/9/6 21/17/6 9/18/6
f 15/19/7 9/20/7 13/21/7
f 11/22/1 28/23/1 25/24/1
f 7/25/3 13/26/3 8/27/3
f 10/28/8 16/29/8 12/30/8
f 4/14/9 24/31/9 16/15/9
f 11/22/1 41/32/1 42/33/1
f 24/34/10 20/35/10 23/36/10
f 17/37/10 21/38/10 19/39/10
f 22/40/10 23/36/10 21/38/10
f 4/41/2 20/42/2 18/43/2
f 16/29/11 22/44/11 12/30/11
f 13/26/12 20/45/12 8/27/12
f 52/46/13 22/47/13 17/48/13
f 13/21/14 21/49/14 23/50/14
f 25/51/15 30/52/15 26/53/15
f 32/54/2 33/55/2 29/56/2
f 28/57/16 29/56/16 25/58/16
f 26/59/17 31/60/17 27/61/17
f 27/62/18 32/63/18 28/64/18
f 35/65/19 38/66/19 39/67/19
f 30/68/4 35/65/4 31/60/4
f 31/69/5 36/70/5 32/63/5
f 29/71/3 34/72/3 30/52/3
f 40/73/1 38/74/1 37/75/1
f 35/76/20 40/77/20 36/70/20
f 33/78/21 38/79/21 34/72/21
f 36/80/22 37/81/22 33/55/22
f 43/82/1 42/83/1 45/84/1
f 45/84/1 42/83/1 41/85/1
f 15/86/1 44/87/1 41/32/1
f 44/88/1 43/82/1 45/84/1
f 44/88/1 45/84/1 41/85/1
f 48/89/1 47/90/1 50/91/1
f 50/91/1 47/90/1 46/92/1
f 42/33/1 49/93/1 46/94/1
f 49/95/1 48/89/1 50/91/1
f 49/95/1 50/91/1 46/92/1
f 1/96/1 27/97/1 51/98/1
f 5/99/1 26/100/1 27/97/1
f 28/101/1 51/102/1 27/103/1
f 52/46/5 10/104/5 12/105/5
f 2/106/5 51/107/5 52/46/5
f 47/1/1 48/108/1 3/2/1
f 8/6/2 4/41/2 43/4/2
f 4/41/2 3/109/2 48/110/2
f 48/110/2 49/111/2 4/41/2
f 49/111/2 43/4/2 4/41/2
f 44/5/2 7/112/2 8/6/2
f 6/9/3 9/18/3 25/113/3
f 9/18/3 11/114/3 25/113/3
f 25/113/3 26/7/3 6/9/3
f 2/10/4 17/115/4 19/11/4
f 14/13/5 3/116/5 4/14/5
f 5/16/4 1/117/4 2/10/4
f 6/9/6 19/118/6 21/17/6
f 15/19/7 11/119/7 9/20/7
f 11/22/1 10/120/1 28/23/1
f 7/25/3 15/121/3 13/26/3
f 10/28/8 14/122/8 16/29/8
f 4/14/9 18/123/9 24/31/9
f 14/3/1 10/120/1 47/1/1
f 10/120/1 11/22/1 42/33/1
f 47/1/1 10/120/1 46/94/1
f 11/22/1 15/86/1 41/32/1
f 42/33/1 46/94/1 10/120/1
f 24/34/10 18/124/10 20/35/10
f 17/37/10 22/40/10 21/38/10
f 22/40/10 24/34/10 23/36/10
f 4/41/2 8/6/2 20/42/2
f 16/29/23 24/125/23 22/44/23
f 13/26/12 23/126/12 20/45/12
f 17/48/13 2/106/13 52/46/13
f 52/46/13 12/105/13 22/47/13
f 13/21/24 9/20/24 21/49/24
f 25/51/15 29/71/15 30/52/15
f 32/54/2 36/80/2 33/55/2
f 28/57/16 32/54/16 29/56/16
f 26/59/17 30/68/17 31/60/17
f 27/62/18 31/69/18 32/63/18
f 35/65/19 34/127/19 38/66/19
f 30/68/4 34/127/4 35/65/4
f 31/69/5 35/76/5 36/70/5
f 29/71/3 33/78/3 34/72/3
f 40/73/1 39/128/1 38/74/1
f 35/76/20 39/129/20 40/77/20
f 33/78/21 37/130/21 38/79/21
f 36/80/22 40/131/22 37/81/22
f 15/86/1 7/132/1 44/87/1
f 42/33/1 43/133/1 49/93/1
f 1/96/1 5/99/1 27/97/1
f 28/101/1 10/134/1 51/102/1
f 52/46/5 51/107/5 10/104/5
f 2/106/5 1/135/5 51/107/5
